<?xml version="1.0" encoding="UTF-8"?>
<svg version="1.1" xmlns="http://www.w3.org/2000/svg" width="280" height="280">
<path d="M0 0 C92.4 0 184.8 0 280 0 C280 92.4 280 184.8 280 280 C187.6 280 95.2 280 0 280 C0 187.6 0 95.2 0 0 Z " fill="#F7F7F7" transform="translate(0,0)"/>
<path d="M0 0 C4.25842537 2.01114926 7.32891189 4.76560896 10.48046875 8.27734375 C11.01671875 8.73109375 11.55296875 9.18484375 12.10546875 9.65234375 C16.93676083 15.36205258 16.99461866 21.84187738 16.91796875 28.96484375 C16.91039551 29.94364502 16.90282227 30.92244629 16.89501953 31.9309082 C16.72674397 39.32704915 15.72164922 45.56129269 12.48046875 52.27734375 C12.07957031 53.18097656 11.67867187 54.08460938 11.265625 55.015625 C5.68980607 66.44201336 -3.11055475 75.62867241 -14.51953125 81.27734375 C-15.50953125 81.77234375 -15.50953125 81.77234375 -16.51953125 82.27734375 C-18.578125 82.26171875 -18.578125 82.26171875 -20.95703125 82.02734375 C-22.13072266 81.92679688 -22.13072266 81.92679688 -23.328125 81.82421875 C-25.94174232 81.17197913 -26.94359106 80.44807427 -28.51953125 78.27734375 C-28.44637093 74.25352623 -28.10668652 72.01602296 -25.58203125 68.83984375 C-23.51953125 67.27734375 -23.51953125 67.27734375 -21.51953125 67.27734375 C-21.27203125 66.74109375 -21.02453125 66.20484375 -20.76953125 65.65234375 C-19.51953125 63.27734375 -19.51953125 63.27734375 -17.51953125 60.33984375 C-14.50229811 55.71970551 -13.28001168 51.72745349 -12.51953125 46.27734375 C-13.34453125 46.40109375 -14.16953125 46.52484375 -15.01953125 46.65234375 C-21.04845856 46.00638725 -24.93407003 42.02969563 -28.89453125 37.65234375 C-33.69136891 30.64158102 -33.16824155 23.49434083 -32.51953125 15.27734375 C-30.77801922 8.61991801 -24.28775415 3.70092301 -18.69140625 0.1015625 C-13.10168799 -2.01971547 -5.68509588 -1.6306089 0 0 Z " fill="#020202" transform="translate(148.51953125,141.72265625)"/>
<path d="M0 0 C5.12640051 2.93056446 9.2005596 7.11975472 11.18359375 12.76953125 C12.55280686 20.82953833 13.24671784 29.5918159 8.6875 36.6875 C3.78554944 42.48960915 -1.36606493 45.40316463 -8.875 46.50390625 C-15.97835709 46.86366679 -20.96463242 46.17438028 -26.6015625 41.7109375 C-31.90879057 36.76505262 -34.98106693 32.2777332 -35.7734375 24.8515625 C-35.87243612 16.67427638 -35.30526044 11.06962685 -29.56640625 5.03125 C-21.1542863 -2.7288909 -10.75074877 -4.83783695 0 0 Z " fill="#020202" transform="translate(151.4375,58)"/>
<path d="M0 0 C1.36125 0.7425 1.36125 0.7425 2.75 1.5 C2.42 2.49 2.09 3.48 1.75 4.5 C1.05519531 4.17773438 0.36039063 3.85546875 -0.35546875 3.5234375 C-6.649397 1.29805396 -14.54663622 1.30029679 -20.6875 4.0625 C-26.2584573 7.38387412 -30.35621695 12.2926 -32.25 18.5 C-32.38710218 21.14607209 -32.44062972 23.67469013 -32.375 26.3125 C-32.36146484 27.35180664 -32.36146484 27.35180664 -32.34765625 28.41210938 C-32.32426157 30.10822395 -32.28839641 31.80415871 -32.25 33.5 C-33.24 32.84 -34.23 32.18 -35.25 31.5 C-36.55020288 24.23004841 -35.34933465 14.64900197 -31.25 8.5 C-30.26 8.5 -29.27 8.5 -28.25 8.5 C-28.25 7.51 -28.25 6.52 -28.25 5.5 C-27.59 5.5 -26.93 5.5 -26.25 5.5 C-26.25 4.84 -26.25 4.18 -26.25 3.5 C-17.95759675 -1.63688697 -9.36102354 -3.933521 0 0 Z " fill="#CECECE" transform="translate(149.25,54.5)"/>
<path d="M0 0 C0.33 0.66 0.66 1.32 1 2 C-1.52510731 8.51454626 -4.88011116 14.82333337 -10.6875 18.875 C-13.77391018 21.71116071 -13.76443449 23.91686446 -14 28 C-14.99 28 -15.98 28 -17 28 C-17.24898473 24.08540668 -16.68884541 21.77381936 -14.75 18.375 C-14.33234375 17.61960938 -13.9146875 16.86421875 -13.484375 16.0859375 C-11.87489794 13.82419868 -10.34449405 12.47234227 -8 11 C-7.34 11 -6.68 11 -6 11 C-5.7525 10.29875 -5.505 9.5975 -5.25 8.875 C-3.83911974 5.62997541 -2.02104602 2.89683263 0 0 Z " fill="#D0D0D0" transform="translate(135,192)"/>
<path d="M0 0 C1.32 0.33 2.64 0.66 4 1 C3.50886719 1.79664063 3.01773438 2.59328125 2.51171875 3.4140625 C0.60772352 7.9305163 0.66222849 11.54319311 0.8125 16.375 C0.82603516 17.20644531 0.83957031 18.03789062 0.85351562 18.89453125 C0.88860941 20.92997066 0.94240772 22.96507291 1 25 C-2 23 -2 23 -3.25 19.875 C-4.68832896 12.4436337 -2.7956774 6.80686672 0 0 Z " fill="#CECECE" transform="translate(116,150)"/>
<path d="M0 0 C0.9075 0.495 1.815 0.99 2.75 1.5 C2.42 2.49 2.09 3.48 1.75 4.5 C1.12738281 4.17257813 0.50476563 3.84515625 -0.13671875 3.5078125 C-4.48023307 2.10175642 -8.5304469 2.28713022 -13.0625 2.375 C-14.38797852 2.38853516 -14.38797852 2.38853516 -15.74023438 2.40234375 C-17.91027359 2.42580363 -20.08017247 2.46167135 -22.25 2.5 C-16.93986167 -3.31586579 -6.93051469 -3.01079736 0 0 Z " fill="#DDDDDD" transform="translate(149.25,54.5)"/>
<path d="M0 0 C1.22847656 -0.00257813 2.45695312 -0.00515625 3.72265625 -0.0078125 C6.9375 0.125 6.9375 0.125 9.9375 1.125 C9.6075 2.115 9.2775 3.105 8.9375 4.125 C7.9475 3.795 6.9575 3.465 5.9375 3.125 C-2.46711642 2.27157494 -8.63461903 2.34305705 -15.390625 7.71484375 C-15.94234375 8.18019531 -16.4940625 8.64554688 -17.0625 9.125 C-18.0525 9.62 -18.0525 9.62 -19.0625 10.125 C-19.0625 8.805 -19.0625 7.485 -19.0625 6.125 C-16.18895755 3.95042733 -14.69813409 3.125 -11.0625 3.125 C-11.0625 2.465 -11.0625 1.805 -11.0625 1.125 C-7.36736069 -0.0418861 -3.85549017 -0.00810829 0 0 Z " fill="#BABABA" transform="translate(140.0625,138.875)"/>
<path d="M0 0 C0.33 0.66 0.66 1.32 1 2 C0.07421875 4.34765625 0.07421875 4.34765625 -1.3125 7.0625 C-1.98732422 8.41021484 -1.98732422 8.41021484 -2.67578125 9.78515625 C-4 12 -4 12 -6 13 C-5.51675181 7.84535266 -2.81389239 4.18449681 0 0 Z " fill="#BABABA" transform="translate(135,192)"/>
<path d="M0 0 C2.27076842 -0.02699725 4.54162821 -0.04639453 6.8125 -0.0625 C8.07707031 -0.07410156 9.34164062 -0.08570313 10.64453125 -0.09765625 C14 0 14 0 17 1 C16.67 1.99 16.34 2.98 16 4 C15.29488281 3.68289062 14.58976563 3.36578125 13.86328125 3.0390625 C10.87494121 1.95461714 8.34930342 1.6035641 5.1875 1.375 C4.21167969 1.30023438 3.23585937 1.22546875 2.23046875 1.1484375 C1.12638672 1.07496094 1.12638672 1.07496094 0 1 C0 0.67 0 0.34 0 0 Z " fill="#D7D7D7" transform="translate(133,139)"/>
<path d="M0 0 C0.68359375 1.703125 0.68359375 1.703125 1 4 C-0.21484375 6.359375 -0.21484375 6.359375 -1.9375 8.75 C-2.50339844 9.54921875 -3.06929687 10.3484375 -3.65234375 11.171875 C-4.09707031 11.77515625 -4.54179687 12.3784375 -5 13 C-5.33 12.34 -5.66 11.68 -6 11 C-4.78515625 8.3984375 -4.78515625 8.3984375 -3.0625 5.375 C-2.21365234 3.87066406 -2.21365234 3.87066406 -1.34765625 2.3359375 C-0.90292969 1.56507813 -0.45820313 0.79421875 0 0 Z " fill="#E1E1E1" transform="translate(135,188)"/>
</svg>
